<?xml version="1.0" encoding="UTF-8" standalone="no"?><!DOCTYPE svg PUBLIC "-//W3C//DTD SVG 1.1//EN" "http://www.w3.org/Graphics/SVG/1.1/DTD/svg11.dtd"><svg width="100%" height="100%" viewBox="0 0 500 500" version="1.1" xmlns="http://www.w3.org/2000/svg" xmlns:xlink="http://www.w3.org/1999/xlink" xml:space="preserve" style="fill-rule:evenodd;clip-rule:evenodd;stroke-linejoin:round;stroke-miterlimit:1.41421;"><path d="M249.996,25.981c-123.718,0 -224.013,100.299 -224.013,224.017c0,123.715 100.295,224.021 224.013,224.021c123.718,0 224.021,-100.306 224.021,-224.021c0,-123.718 -100.303,-224.017 -224.021,-224.017Zm0.005,78.685l132.565,82.664l-265.131,0l132.566,-82.664Zm134.217,214.668l-0.014,0c0,13.259 -10.745,24.003 -24.003,24.003l-220.401,0c-13.259,0 -24.003,-10.746 -24.003,-24.003l0,-126.744c0,-1.402 0.143,-2.766 0.376,-4.105l126.659,78.979c0.155,0.097 0.321,0.163 0.481,0.252c0.167,0.093 0.337,0.183 0.508,0.268c0.894,0.461 1.816,0.833 2.758,1.076c0.097,0.027 0.194,0.039 0.291,0.062c1.034,0.243 2.081,0.395 3.126,0.395l0.023,0c1.045,0 2.092,-0.147 3.126,-0.395c0.097,-0.024 0.194,-0.035 0.291,-0.062c0.941,-0.243 1.859,-0.615 2.758,-1.076c0.17,-0.085 0.341,-0.175 0.508,-0.268c0.158,-0.089 0.326,-0.155 0.481,-0.252l126.658,-78.979c0.233,1.339 0.377,2.7 0.377,4.105l0,126.744Z" style="fill:#ebeff3;fill-rule:nonzero;"/></svg>