<?xml version="1.0" encoding="UTF-8" standalone="no"?><!DOCTYPE svg PUBLIC "-//W3C//DTD SVG 1.1//EN" "http://www.w3.org/Graphics/SVG/1.1/DTD/svg11.dtd"><svg width="100%" height="100%" viewBox="0 0 120 120" version="1.1" xmlns="http://www.w3.org/2000/svg" xmlns:xlink="http://www.w3.org/1999/xlink" xml:space="preserve" style="fill-rule:evenodd;clip-rule:evenodd;stroke-linejoin:round;stroke-miterlimit:1.41421;"><path id="LinkedIn__x28_alt_x29_" d="M104.626,7.641l-89.247,0c-4.274,0 -7.737,3.358 -7.737,7.503l0,89.709c0,4.145 3.465,7.506 7.737,7.506l89.247,0c4.272,0 7.732,-3.363 7.732,-7.506l0,-89.709c0,-4.143 -3.46,-7.503 -7.732,-7.503Zm-65.237,87.656l-15.822,0l0,-47.279l15.822,0l0,47.279Zm-7.91,-53.738l-0.106,0c-5.306,0 -8.745,-3.628 -8.745,-8.171c0,-4.634 3.54,-8.165 8.951,-8.165c5.412,0 8.74,3.53 8.845,8.165c0,4.544 -3.432,8.171 -8.945,8.171Zm64.943,53.738l-15.817,0l0,-25.296c0,-6.356 -2.292,-10.693 -8.011,-10.693c-4.376,0 -6.974,2.926 -8.114,5.751c-0.423,1.009 -0.528,2.42 -0.528,3.829l0,26.408l-15.813,0c0,0 0.206,-42.844 0,-47.278l15.816,0l0,6.702c2.099,-3.22 5.851,-7.815 14.251,-7.815c10.41,0 18.216,6.754 18.216,21.282l0,27.11Zm-32.569,-40.427c0.027,-0.044 0.064,-0.097 0.102,-0.149l0,0.149l-0.102,0Z" style="fill:#ebeff3;fill-rule:nonzero;"/></svg>