<?xml version="1.0" encoding="UTF-8" standalone="no"?>
<!DOCTYPE svg PUBLIC "-//W3C//DTD SVG 1.1//EN" "http://www.w3.org/Graphics/SVG/1.1/DTD/svg11.dtd">
<svg width="100%" height="100%" viewBox="0 0 300 40" version="1.1" xmlns="http://www.w3.org/2000/svg" xmlns:xlink="http://www.w3.org/1999/xlink" xml:space="preserve" style="fill-rule:evenodd;clip-rule:evenodd;stroke-linejoin:round;stroke-miterlimit:1.41421;">
    <g id="_002.-black.-male.-user.-symbol" transform="matrix(0.723598,0,0,0.723598,150,20)">
        <g transform="matrix(1,0,0,1,-21.514,-21.514)">
            <clipPath id="_clip1">
                <rect x="0" y="0" width="43.028" height="43.028"/>
            </clipPath>
            <g clip-path="url(#_clip1)">
                <path d="M39.561,33.971L39.416,34.145C34.642,39.873 28.283,43.029 21.514,43.029C14.744,43.029 8.386,39.874 3.611,34.145L3.467,33.971L3.501,33.748C4.423,27.734 7.565,22.903 12.348,20.142L12.688,19.946L12.959,20.23C15.218,22.6 18.256,23.904 21.513,23.904C24.77,23.904 27.808,22.599 30.067,20.23L30.338,19.946L30.678,20.142C35.461,22.903 38.603,27.734 39.526,33.748L39.561,33.971ZM21.514,21.489C27.438,21.489 32.258,16.669 32.258,10.745C32.258,4.821 27.438,0 21.514,0C15.59,0 10.77,4.821 10.77,10.744C10.77,16.667 15.59,21.489 21.514,21.489Z" style="fill:rgb(235,239,243);fill-rule:nonzero;"/>
            </g>
        </g>
    </g>
    <g transform="matrix(1.11345,0,0,1,-434.876,-443.872)">
        <rect x="541.994" y="461.532" width="118.006" height="4.68" style="fill:rgb(235,239,243);"/>
    </g>
    <g transform="matrix(1.11345,0,0,1,-603.482,-443.872)">
        <rect x="541.994" y="461.532" width="118.006" height="4.68" style="fill:rgb(235,239,243);"/>
    </g>
</svg>
