<?xml version="1.0" encoding="UTF-8" standalone="no"?>
<!-- Created with Inkscape (http://www.inkscape.org/) -->

<svg
   xmlns:dc="http://purl.org/dc/elements/1.1/"
   xmlns:cc="http://creativecommons.org/ns#"
   xmlns:rdf="http://www.w3.org/1999/02/22-rdf-syntax-ns#"
   xmlns:svg="http://www.w3.org/2000/svg"
   xmlns="http://www.w3.org/2000/svg"
   xmlns:sodipodi="http://sodipodi.sourceforge.net/DTD/sodipodi-0.dtd"
   xmlns:inkscape="http://www.inkscape.org/namespaces/inkscape"
   width="256px"
   height="256px"
   viewBox="0 0 256 256"
   version="1.1"
   id="SVGRoot"
   inkscape:version="0.92.4 5da689c313, 2019-01-14"
   sodipodi:docname="pictoEntete-about-me-no-line.svg">
  <defs
     id="defs3755">
    <clipPath
       id="_clip1">
      <rect
         x="0"
         y="0"
         width="43.028"
         height="43.028"
         id="rect2" />
    </clipPath>
  </defs>
  <sodipodi:namedview
     id="base"
     pagecolor="#ffffff"
     bordercolor="#666666"
     borderopacity="1.0"
     inkscape:pageopacity="0.0"
     inkscape:pageshadow="2"
     inkscape:zoom="2"
     inkscape:cx="106.45689"
     inkscape:cy="140.45079"
     inkscape:document-units="px"
     inkscape:current-layer="layer1"
     showgrid="false"
     inkscape:window-width="1920"
     inkscape:window-height="1028"
     inkscape:window-x="0"
     inkscape:window-y="27"
     inkscape:window-maximized="1"
     inkscape:grid-bbox="true"
     showguides="true"
     inkscape:guide-bbox="true" />
  <metadata
     id="metadata3758">
    <rdf:RDF>
      <cc:Work
         rdf:about="">
        <dc:format>image/svg+xml</dc:format>
        <dc:type
           rdf:resource="http://purl.org/dc/dcmitype/StillImage" />
        <dc:title></dc:title>
      </cc:Work>
    </rdf:RDF>
  </metadata>
  <g
     inkscape:label="Calque 1"
     inkscape:groupmode="layer"
     id="layer1">
    <g
       style="clip-rule:evenodd;fill-rule:evenodd;stroke-linejoin:round;stroke-miterlimit:1.41420996"
       id="_002.-black.-male.-user.-symbol"
       transform="matrix(5.9246864,0,0,5.9246864,129.5,128.10378)">
      <g
         transform="translate(-21.514,-21.514)"
         id="g9">
        <clipPath
           id="clipPath3780">
          <rect
             x="0"
             y="0"
             width="43.028"
             height="43.028"
             id="rect3778" />
        </clipPath>
        <g
           clip-path="url(#_clip1)"
           id="g7">
          <path
             inkscape:connector-curvature="0"
             d="m 39.561,33.971 -0.145,0.174 c -4.774,5.728 -11.133,8.884 -17.902,8.884 -6.77,0 -13.128,-3.155 -17.903,-8.884 L 3.467,33.971 3.501,33.748 C 4.423,27.734 7.565,22.903 12.348,20.142 l 0.34,-0.196 0.271,0.284 c 2.259,2.37 5.297,3.674 8.554,3.674 3.257,0 6.295,-1.305 8.554,-3.674 l 0.271,-0.284 0.34,0.196 c 4.783,2.761 7.925,7.592 8.848,13.606 z M 21.514,21.489 c 5.924,0 10.744,-4.82 10.744,-10.744 C 32.258,4.821 27.438,0 21.514,0 15.59,0 10.77,4.821 10.77,10.744 c 0,5.923 4.82,10.745 10.744,10.745 z"
             style="fill:#ebeff3;fill-rule:nonzero"
             id="path5" />
        </g>
      </g>
    </g>
  </g>
</svg>
