<?xml version="1.0" encoding="UTF-8" standalone="no"?>
<!DOCTYPE svg PUBLIC "-//W3C//DTD SVG 1.1//EN" "http://www.w3.org/Graphics/SVG/1.1/DTD/svg11.dtd">
<svg width="100%" height="100%" viewBox="0 0 120 120" version="1.1" xmlns="http://www.w3.org/2000/svg" xmlns:xlink="http://www.w3.org/1999/xlink" xml:space="preserve" xmlns:serif="http://www.serif.com/" style="fill-rule:evenodd;clip-rule:evenodd;stroke-linejoin:round;stroke-miterlimit:1.41421;">
    <g>
        <path d="M101.887,112.359L18.113,112.359C12.354,112.359 7.641,107.646 7.641,101.887L7.641,18.113C7.641,12.354 12.354,7.641 18.113,7.641L101.887,7.641C107.646,7.641 112.359,12.354 112.359,18.113L112.359,101.887C112.359,107.646 107.646,112.359 101.887,112.359ZM46.238,29.755C46.238,29.755 51.128,32.998 51.128,38.942C51.128,49.143 36.738,60.356 36.738,70.962C36.738,82.378 45.819,89.742 54.481,91.971C55.739,92.174 56.158,90.958 54.691,90.552C51.128,89.742 47.286,85.216 47.286,78.325C47.286,71.773 53.853,69.341 56.367,66.301C59.092,63.059 58.463,58.938 56.787,57.722C55.11,56.506 56.367,54.885 59.092,56.911C61.816,58.735 64.191,62.451 63.283,65.693C62.235,69.949 63.702,72.448 66.008,72.854C68.313,73.259 70.898,72.043 70.618,70.016C70.339,67.99 69.151,65.761 69.78,65.761C71.457,65.761 74.879,69.611 74.879,75.961C74.879,82.311 69.57,86.567 67.894,88.188C66.846,89.201 68.103,90.417 69.57,89.809C70.199,89.607 71.666,88.796 72.504,88.188C76.696,85.351 83.262,79.406 83.262,68.598C83.262,57.182 78.861,52.048 74.181,47.792C69.57,43.536 68.453,44.549 69.78,46.778C73.552,53.128 71.247,55.358 68.523,55.358C65.169,55.358 65.169,48.197 63.633,42.725C60.908,30.498 49.242,28.404 47.146,28.202C45.61,27.526 43.654,28.742 46.238,29.755Z" style="fill:rgb(235,239,243);"/>
    </g>
</svg>
