<?xml version="1.0" encoding="UTF-8" standalone="no"?>
<!DOCTYPE svg PUBLIC "-//W3C//DTD SVG 1.1//EN" "http://www.w3.org/Graphics/SVG/1.1/DTD/svg11.dtd">
<svg width="100%" height="100%" viewBox="0 0 300 40" version="1.1" xmlns="http://www.w3.org/2000/svg" xmlns:xlink="http://www.w3.org/1999/xlink" xml:space="preserve" style="fill-rule:evenodd;clip-rule:evenodd;stroke-linejoin:round;stroke-miterlimit:1.41421;">
    <g transform="matrix(1.11345,0,0,1,-434.876,-443.872)">
        <rect x="541.994" y="461.532" width="118.006" height="4.68" style="fill:rgb(235,239,243);"/>
    </g>
    <g transform="matrix(1.11345,0,0,1,-603.482,-443.872)">
        <rect x="541.994" y="461.532" width="118.006" height="4.68" style="fill:rgb(235,239,243);"/>
    </g>
    <g id="_003.-office.-briefcase" transform="matrix(0.31135,0,0,0.31135,150,20)">
        <g transform="matrix(1,0,0,1,-50,-50)">
            <path d="M45.5,52.5L54.5,52.5L54.5,62.5L100,62.5C100,62.5 99.26,40.211 99,33.232C98.754,26.601 96.381,22.5 89,22.5L72.961,22.5C70.475,17.814 67.799,12.773 66.977,11.226C65.322,8.106 64.758,7.5 61.08,7.5L38.92,7.5C35.242,7.5 34.678,8.106 33.024,11.226C32.201,12.773 29.525,17.814 27.041,22.5L11,22.5C3.619,22.5 1.273,26.602 1,33.232C0.727,39.862 0,62.5 0,62.5L45.5,62.5L45.5,52.5ZM38.25,17.078C39.396,14.919 39.787,14.5 42.332,14.5L57.668,14.5C60.213,14.5 60.606,14.919 61.75,17.078C62.18,17.888 63.342,20.079 64.627,22.5L35.373,22.5C36.658,20.079 37.82,17.888 38.25,17.078ZM54.5,77.5L45.5,77.5L45.5,67.5L2.5,67.5C2.5,67.5 3.123,76.49 3.5,84.113C3.656,87.273 4.586,92.5 12.496,92.5L87.504,92.5C95.414,92.5 96.324,87.272 96.5,84.113C96.936,76.273 97.5,67.5 97.5,67.5L54.5,67.5L54.5,77.5Z" style="fill:rgb(235,239,243);fill-rule:nonzero;"/>
        </g>
    </g>
</svg>
