<?xml version="1.0" encoding="UTF-8" standalone="no"?><!DOCTYPE svg PUBLIC "-//W3C//DTD SVG 1.1//EN" "http://www.w3.org/Graphics/SVG/1.1/DTD/svg11.dtd"><svg width="100%" height="100%" viewBox="0 0 500 500" version="1.1" xmlns="http://www.w3.org/2000/svg" xmlns:xlink="http://www.w3.org/1999/xlink" xml:space="preserve" style="fill-rule:evenodd;clip-rule:evenodd;stroke-linejoin:round;stroke-miterlimit:1.41421;"><g><path d="M290.823,218.165c-19.175,0 -27.739,10.539 -32.53,17.939l0,-15.376l-36.113,0c0.47,10.178 0,108.652 0,108.652l36.113,0l0,-60.701c0,-3.24 0.207,-6.497 1.182,-8.816c2.617,-6.497 8.554,-13.22 18.534,-13.22c13.066,0 18.291,9.962 18.291,24.58l0,58.13l36.121,0l0,-62.307c-0.018,-33.352 -17.839,-48.881 -41.598,-48.881Zm-32.557,18.318l-0.226,0c0.072,-0.127 0.18,-0.244 0.226,-0.37l0,0.37Z" style="fill:#ebeff3;fill-rule:nonzero;"/><rect x="166.054" y="220.728" width="36.112" height="108.653" style="fill:#ebeff3;"/><path d="M250,25.981c-123.524,0 -224.019,100.495 -224.019,224.019c0,123.515 100.495,224.019 224.019,224.019c123.515,0 224.019,-100.504 224.019,-224.019c0,-123.524 -100.486,-224.019 -224.019,-224.019Zm118.795,325.345c0,9.528 -7.904,17.235 -17.677,17.235l-203.761,0c-9.745,0 -17.659,-7.707 -17.659,-17.235l0,-206.135c0,-9.52 7.914,-17.235 17.659,-17.235l203.761,0c9.764,0 17.677,7.724 17.677,17.235l0,206.135Z" style="fill:#ebeff3;fill-rule:nonzero;"/><path d="M184.354,168.346c-12.345,0 -20.43,8.103 -20.43,18.769c0,10.422 7.842,18.769 19.951,18.769l0.235,0c12.597,0 20.438,-8.347 20.438,-18.769c-0.243,-10.657 -7.832,-18.769 -20.194,-18.769Z" style="fill:#ebeff3;fill-rule:nonzero;"/></g></svg>