<?xml version="1.0" encoding="UTF-8" standalone="no"?>
<!-- Created with Inkscape (http://www.inkscape.org/) -->

<svg
   xmlns:dc="http://purl.org/dc/elements/1.1/"
   xmlns:cc="http://creativecommons.org/ns#"
   xmlns:rdf="http://www.w3.org/1999/02/22-rdf-syntax-ns#"
   xmlns:svg="http://www.w3.org/2000/svg"
   xmlns="http://www.w3.org/2000/svg"
   xmlns:sodipodi="http://sodipodi.sourceforge.net/DTD/sodipodi-0.dtd"
   xmlns:inkscape="http://www.inkscape.org/namespaces/inkscape"
   width="256px"
   height="256px"
   viewBox="0 0 256 256"
   version="1.1"
   id="SVGRoot"
   inkscape:version="0.92.4 5da689c313, 2019-01-14"
   sodipodi:docname="pictoEntete-resume-no-line.svg">
  <defs
     id="defs3755">
    <clipPath
       id="_clip1">
      <rect
         x="0"
         y="0"
         width="43.028"
         height="43.028"
         id="rect2" />
    </clipPath>
  </defs>
  <sodipodi:namedview
     id="base"
     pagecolor="#ffffff"
     bordercolor="#666666"
     borderopacity="1.0"
     inkscape:pageopacity="0.0"
     inkscape:pageshadow="2"
     inkscape:zoom="2"
     inkscape:cx="106.45689"
     inkscape:cy="140.45079"
     inkscape:document-units="px"
     inkscape:current-layer="layer1"
     showgrid="false"
     inkscape:window-width="1920"
     inkscape:window-height="1028"
     inkscape:window-x="0"
     inkscape:window-y="27"
     inkscape:window-maximized="1"
     inkscape:grid-bbox="true"
     showguides="true"
     inkscape:guide-bbox="true" />
  <metadata
     id="metadata3758">
    <rdf:RDF>
      <cc:Work
         rdf:about="">
        <dc:format>image/svg+xml</dc:format>
        <dc:type
           rdf:resource="http://purl.org/dc/dcmitype/StillImage" />
        <dc:title></dc:title>
      </cc:Work>
    </rdf:RDF>
  </metadata>
  <g
     inkscape:label="Calque 1"
     inkscape:groupmode="layer"
     id="layer1">
    <g
       style="clip-rule:evenodd;fill-rule:evenodd;stroke-linejoin:round;stroke-miterlimit:1.41420996"
       id="_003.-office.-briefcase"
       transform="matrix(2.53135,0,0,2.53135,128,125.65)">
      <g
         transform="translate(-50,-50)"
         id="g12">
        <path
           inkscape:connector-curvature="0"
           d="m 45.5,52.5 h 9 v 10 H 100 c 0,0 -0.74,-22.289 -1,-29.268 C 98.754,26.601 96.381,22.5 89,22.5 H 72.961 C 70.475,17.814 67.799,12.773 66.977,11.226 65.322,8.106 64.758,7.5 61.08,7.5 H 38.92 c -3.678,0 -4.242,0.606 -5.896,3.726 -0.823,1.547 -3.499,6.588 -5.983,11.274 H 11 C 3.619,22.5 1.273,26.602 1,33.232 0.727,39.862 0,62.5 0,62.5 H 45.5 Z M 38.25,17.078 C 39.396,14.919 39.787,14.5 42.332,14.5 h 15.336 c 2.545,0 2.938,0.419 4.082,2.578 0.43,0.81 1.592,3.001 2.877,5.422 H 35.373 c 1.285,-2.421 2.447,-4.612 2.877,-5.422 z M 54.5,77.5 h -9 v -10 h -43 c 0,0 0.623,8.99 1,16.613 0.156,3.16 1.086,8.387 8.996,8.387 h 75.008 c 7.91,0 8.82,-5.228 8.996,-8.387 0.436,-7.84 1,-16.613 1,-16.613 h -43 z"
           style="fill:#ebeff3;fill-rule:nonzero"
           id="path10" />
      </g>
    </g>
  </g>
</svg>
