<?xml version="1.0" encoding="UTF-8" standalone="no"?><!DOCTYPE svg PUBLIC "-//W3C//DTD SVG 1.1//EN" "http://www.w3.org/Graphics/SVG/1.1/DTD/svg11.dtd"><svg width="100%" height="100%" viewBox="0 0 300 300" version="1.1" xmlns="http://www.w3.org/2000/svg" xmlns:xlink="http://www.w3.org/1999/xlink" xml:space="preserve" style="fill-rule:evenodd;clip-rule:evenodd;stroke-linejoin:round;stroke-miterlimit:1.41421;"><path d="M72.5,76.25c-10,-10 -52.5,-12.5 -66.25,-13.75c-1.25,0 -2.501,0 -3.75,1.249c-1.25,1.251 -2.5,3.751 -2.5,5.001l0,112.5c0,3.75 2.5,6.25 6.25,6.25l37.5,0c2.5,0 5,-1.25 6.25,-3.75c0,-3.75 22.5,-70 25.001,-102.5c-0.001,-1.25 -0.001,-3.75 -2.501,-5Z" style="fill:#ebeff3;fill-rule:nonzero;"/><path d="M206.25,106.25c-12.5,-3.75 -23.75,-8.75 -33.75,-12.5c-22.5,-10 -32.5,-5 -52.5,15c-8.75,8.75 -15,21.25 -13.75,26.25c0,1.25 0,1.25 2.5,2.5c6.25,2.5 15,3.75 23.75,-10c1.25,-1.25 2.5,-2.5 5,-2.5c3.75,0 4.999,-1.25 8.749,-2.5c2.501,-1.25 5,-2.501 8.75,-3.75c1.25,0 1.25,0 2.5,0c1.25,0 3.75,1.249 5,1.249c6.251,6.251 17.501,15.001 28.751,25.001c17.5,13.75 35,28.75 43.75,40l1.25,0c-8.75,-25 -23.75,-67.5 -30,-78.75Z" style="fill:#ebeff3;fill-rule:nonzero;"/><path d="M293.75,75c-48.75,0 -76.25,12.5 -77.5,12.5c-1.25,1.25 -2.501,2.5 -3.75,3.75c0,1.25 0,3.75 1.249,5c7.5,12.499 32.501,81.25 36.251,98.749c1.249,2.501 3.75,5 6.25,5l37.5,0c3.75,0 6.25,-2.5 6.25,-6.25l0,-112.5c0,-3.749 -2.5,-6.249 -6.25,-6.249Z" style="fill:#ebeff3;fill-rule:nonzero;"/><path d="M226.25,197.5c-5,-11.25 -26.25,-27.5 -45,-42.5c-10,-8.75 -20,-16.25 -27.5,-22.5c-1.25,1.25 -3.75,1.25 -3.75,2.5c-3.75,1.25 -5,2.5 -10,2.5c-10,12.5 -22.5,17.5 -36.25,12.5c-6.25,-1.25 -10,-6.25 -11.25,-11.25c-2.5,-12.5 8.75,-30 17.5,-38.75l-25,0c-5,25 -13.75,57.5 -20,75c5,5 10.001,11.25 13.751,13.75c23.749,20 51.25,40.001 56.25,43.751c3.75,2.5 11.25,4.999 15,4.999c1.249,0 2.5,0 3.75,0l-20.001,-20c-2.5,-2.5 -2.5,-6.25 0,-8.75c2.5,-2.499 6.25,-2.5 8.75,0l25,25c2.5,2.501 5,1.25 7.5,1.25c3.75,-1.25 5,-3.75 6.25,-7.5l-28.75,-28.75c-2.5,-2.5 -2.5,-6.25 0,-8.75c2.5,-2.499 6.25,-2.5 8.75,0l31.25,31.25c1.25,1.25 6.25,1.25 10,0c1.25,-1.25 3.75,-2.5 5,-5l-35,-35c-2.5,-2.5 -2.5,-6.25 0,-8.75c2.5,-2.5 6.25,-2.5 8.75,0l36.25,36.25c2.5,1.25 5,0 7.5,-1.25c1.25,-1.25 3.75,-5 1.25,-10Z" style="fill:#ebeff3;fill-rule:nonzero;"/></svg>