<?xml version="1.0" encoding="UTF-8" standalone="no"?>
<!-- Created with Inkscape (http://www.inkscape.org/) -->

<svg
   xmlns:dc="http://purl.org/dc/elements/1.1/"
   xmlns:cc="http://creativecommons.org/ns#"
   xmlns:rdf="http://www.w3.org/1999/02/22-rdf-syntax-ns#"
   xmlns:svg="http://www.w3.org/2000/svg"
   xmlns="http://www.w3.org/2000/svg"
   xmlns:sodipodi="http://sodipodi.sourceforge.net/DTD/sodipodi-0.dtd"
   xmlns:inkscape="http://www.inkscape.org/namespaces/inkscape"
   width="256px"
   height="256px"
   viewBox="0 0 256 256"
   version="1.1"
   id="SVGRoot"
   inkscape:version="0.92.4 5da689c313, 2019-01-14"
   sodipodi:docname="pictoEntete-portfolio-no-line.svg">
  <defs
     id="defs3755">
    <clipPath
       id="_clip1">
      <rect
         x="0"
         y="0"
         width="43.028"
         height="43.028"
         id="rect2" />
    </clipPath>
  </defs>
  <sodipodi:namedview
     id="base"
     pagecolor="#ffffff"
     bordercolor="#666666"
     borderopacity="1.0"
     inkscape:pageopacity="0.0"
     inkscape:pageshadow="2"
     inkscape:zoom="2"
     inkscape:cx="106.45689"
     inkscape:cy="140.45079"
     inkscape:document-units="px"
     inkscape:current-layer="layer1"
     showgrid="false"
     inkscape:window-width="1920"
     inkscape:window-height="1028"
     inkscape:window-x="0"
     inkscape:window-y="27"
     inkscape:window-maximized="1"
     inkscape:grid-bbox="true"
     showguides="true"
     inkscape:guide-bbox="true" />
  <metadata
     id="metadata3758">
    <rdf:RDF>
      <cc:Work
         rdf:about="">
        <dc:format>image/svg+xml</dc:format>
        <dc:type
           rdf:resource="http://purl.org/dc/dcmitype/StillImage" />
        <dc:title></dc:title>
      </cc:Work>
    </rdf:RDF>
  </metadata>
  <g
     inkscape:label="Calque 1"
     inkscape:groupmode="layer"
     id="layer1">
    <g
       style="clip-rule:evenodd;fill-rule:evenodd;stroke-linejoin:round;stroke-miterlimit:1.41420996"
       id="painter.-palette"
       transform="matrix(0.55035612,0,0,0.55035612,128,128)">
      <g
         transform="translate(-229.5,-229.5)"
         id="g3">
        <path
           inkscape:connector-curvature="0"
           id="palette"
           d="M 229.5,0 C 102,0 0,102 0,229.5 0,357 102,459 229.5,459 c 20.4,0 38.25,-17.85 38.25,-38.25 0,-10.2 -2.55,-17.85 -10.2,-25.5 -5.1,-7.65 -10.2,-15.3 -10.2,-25.5 0,-20.4 17.851,-38.25 38.25,-38.25 h 45.9 C 402.9,331.5 459,275.4 459,204 459,91.8 357,0 229.5,0 Z M 89.25,229.5 C 68.85,229.5 51,211.65 51,191.25 51,170.85 68.85,153 89.25,153 c 20.4,0 38.25,17.85 38.25,38.25 0,20.4 -17.85,38.25 -38.25,38.25 z m 76.5,-102 c -20.4,0 -38.25,-17.85 -38.25,-38.25 0,-20.4 17.85,-38.25 38.25,-38.25 20.4,0 38.25,17.85 38.25,38.25 0,20.4 -17.85,38.25 -38.25,38.25 z m 127.5,0 C 272.85,127.5 255,109.65 255,89.25 255,68.85 272.85,51 293.25,51 c 20.4,0 38.25,17.85 38.25,38.25 0,20.4 -17.85,38.25 -38.25,38.25 z m 76.5,102 c -20.4,0 -38.25,-17.85 -38.25,-38.25 0,-20.4 17.85,-38.25 38.25,-38.25 20.4,0 38.25,17.85 38.25,38.25 0,20.4 -17.85,38.25 -38.25,38.25 z"
           style="fill:#ebeff3;fill-rule:nonzero" />
      </g>
    </g>
  </g>
</svg>
