<?xml version="1.0" encoding="UTF-8" standalone="no"?>
<!DOCTYPE svg PUBLIC "-//W3C//DTD SVG 1.1//EN" "http://www.w3.org/Graphics/SVG/1.1/DTD/svg11.dtd">
<svg width="100%" height="100%" viewBox="0 0 60 60" version="1.1" xmlns="http://www.w3.org/2000/svg" xmlns:xlink="http://www.w3.org/1999/xlink" xml:space="preserve" style="fill-rule:evenodd;clip-rule:evenodd;stroke-linejoin:round;stroke-miterlimit:1.41421;">
    <g transform="matrix(-0.126908,-1.55418e-17,1.55418e-17,-0.126908,30,30)">
        <g id="chevron.-arrow.-down" transform="matrix(1,0,0,1,-222.41,-222.41)">
            <path d="M434.252,114.203L412.843,92.787C405.424,85.747 396.759,82.226 386.868,82.226C376.773,82.226 368.211,85.747 361.168,92.787L222.41,231.549L83.653,92.791C76.611,85.751 68.047,82.23 57.956,82.23C48.06,82.23 39.397,85.751 31.977,92.791L10.849,114.207C3.615,121.436 0,130.099 0,140.188C0,150.465 3.619,159.03 10.848,165.881L196.712,351.746C203.567,358.976 212.128,362.594 222.409,362.594C232.497,362.594 241.159,358.977 248.386,351.746L434.251,165.881C441.294,158.837 444.818,150.273 444.818,140.188C444.819,130.287 441.295,121.629 434.252,114.203Z" style="fill:rgb(55,67,85);fill-rule:nonzero;"/>
        </g>
    </g>
</svg>
