<?xml version="1.0" encoding="UTF-8" standalone="no"?>
<!DOCTYPE svg PUBLIC "-//W3C//DTD SVG 1.1//EN" "http://www.w3.org/Graphics/SVG/1.1/DTD/svg11.dtd">
<svg width="100%" height="100%" viewBox="0 0 300 40" version="1.1" xmlns="http://www.w3.org/2000/svg" xmlns:xlink="http://www.w3.org/1999/xlink" xml:space="preserve" style="fill-rule:evenodd;clip-rule:evenodd;stroke-linejoin:round;stroke-miterlimit:1.41421;">
    <g id="painter.-palette" transform="matrix(0.066696,0,0,0.066696,150,20)">
        <g transform="matrix(1,0,0,1,-229.5,-229.5)">
            <path id="palette" d="M229.5,0C102,0 0,102 0,229.5C0,357 102,459 229.5,459C249.9,459 267.75,441.15 267.75,420.75C267.75,410.55 265.2,402.9 257.55,395.25C252.45,387.6 247.35,379.95 247.35,369.75C247.35,349.35 265.201,331.5 285.6,331.5L331.5,331.5C402.9,331.5 459,275.4 459,204C459,91.8 357,0 229.5,0ZM89.25,229.5C68.85,229.5 51,211.65 51,191.25C51,170.85 68.85,153 89.25,153C109.65,153 127.5,170.85 127.5,191.25C127.5,211.65 109.65,229.5 89.25,229.5ZM165.75,127.5C145.35,127.5 127.5,109.65 127.5,89.25C127.5,68.85 145.35,51 165.75,51C186.15,51 204,68.85 204,89.25C204,109.65 186.15,127.5 165.75,127.5ZM293.25,127.5C272.85,127.5 255,109.65 255,89.25C255,68.85 272.85,51 293.25,51C313.65,51 331.5,68.85 331.5,89.25C331.5,109.65 313.65,127.5 293.25,127.5ZM369.75,229.5C349.35,229.5 331.5,211.65 331.5,191.25C331.5,170.85 349.35,153 369.75,153C390.15,153 408,170.85 408,191.25C408,211.65 390.15,229.5 369.75,229.5Z" style="fill:rgb(235,239,243);fill-rule:nonzero;"/>
        </g>
    </g>
    <g transform="matrix(1.11345,0,0,1,-434.876,-443.872)">
        <rect x="541.994" y="461.532" width="118.006" height="4.68" style="fill:rgb(235,239,243);"/>
    </g>
    <g transform="matrix(1.11345,0,0,1,-603.482,-443.872)">
        <rect x="541.994" y="461.532" width="118.006" height="4.68" style="fill:rgb(235,239,243);"/>
    </g>
</svg>
