<?xml version="1.0" encoding="UTF-8" standalone="no"?>
<svg
   xmlns:dc="http://purl.org/dc/elements/1.1/"
   xmlns:cc="http://creativecommons.org/ns#"
   xmlns:rdf="http://www.w3.org/1999/02/22-rdf-syntax-ns#"
   xmlns:svg="http://www.w3.org/2000/svg"
   xmlns="http://www.w3.org/2000/svg"
   xmlns:sodipodi="http://sodipodi.sourceforge.net/DTD/sodipodi-0.dtd"
   xmlns:inkscape="http://www.inkscape.org/namespaces/inkscape"
   id="bold"
   enable-background="new 0 0 24 24"
   height="512"
   viewBox="0 0 24 24"
   width="512"
   version="1.1"
   sodipodi:docname="pictoEntete-resume-no-line.svg"
   inkscape:version="1.0.1 (3bc2e813f5, 2020-09-07, custom)">
  <metadata
     id="metadata13">
    <rdf:RDF>
      <cc:Work
         rdf:about="">
        <dc:format>image/svg+xml</dc:format>
        <dc:type
           rdf:resource="http://purl.org/dc/dcmitype/StillImage" />
      </cc:Work>
    </rdf:RDF>
  </metadata>
  <defs
     id="defs11" />
  <sodipodi:namedview
     pagecolor="#ffffff"
     bordercolor="#666666"
     borderopacity="1"
     objecttolerance="10"
     gridtolerance="10"
     guidetolerance="10"
     inkscape:pageopacity="0"
     inkscape:pageshadow="2"
     inkscape:window-width="1920"
     inkscape:window-height="1016"
     id="namedview9"
     showgrid="false"
     inkscape:zoom="1.3964844"
     inkscape:cx="256"
     inkscape:cy="256"
     inkscape:window-x="0"
     inkscape:window-y="35"
     inkscape:window-maximized="1"
     inkscape:current-layer="bold" />
  <path
     d="m15 6.5c-.552 0-1-.448-1-1v-1.5h-4v1.5c0 .552-.448 1-1 1s-1-.448-1-1v-1.5c0-1.103.897-2 2-2h4c1.103 0 2 .897 2 2v1.5c0 .552-.448 1-1 1z"
     id="path2"
     style="fill:#ebeff3;fill-opacity:1" />
  <path
     d="m12.71 15.38c-.18.07-.44.12-.71.12s-.53-.05-.77-.14l-11.23-3.74v7.63c0 1.52 1.23 2.75 2.75 2.75h18.5c1.52 0 2.75-1.23 2.75-2.75v-7.63z"
     id="path4"
     style="fill:#ebeff3;fill-opacity:1" />
  <path
     d="m24 7.75v2.29l-11.76 3.92c-.08.03-.16.04-.24.04s-.16-.01-.24-.04l-11.76-3.92v-2.29c0-1.52 1.23-2.75 2.75-2.75h18.5c1.52 0 2.75 1.23 2.75 2.75z"
     id="path6"
     style="fill:#ebeff3;fill-opacity:1" />
</svg>
