<?xml version="1.0" encoding="UTF-8" standalone="no"?><!DOCTYPE svg PUBLIC "-//W3C//DTD SVG 1.1//EN" "http://www.w3.org/Graphics/SVG/1.1/DTD/svg11.dtd"><svg width="100%" height="100%" viewBox="0 0 300 300" version="1.1" xmlns="http://www.w3.org/2000/svg" xmlns:xlink="http://www.w3.org/1999/xlink" xml:space="preserve" style="fill-rule:evenodd;clip-rule:evenodd;stroke-linejoin:round;stroke-miterlimit:1.41421;"><g><path d="M150.001,179.975l-89.493,-27.545l0,46.004c0,21.268 40.081,38.511 89.52,38.511c49.436,0 89.524,-17.243 89.524,-38.511c0,-0.167 -0.055,-0.335 -0.058,-0.499l0,-45.505l-89.493,27.545Z" style="fill:#ebeff3;fill-rule:nonzero;"/><path d="M0,120.763l31.971,11.436l2.725,-5.835l11.745,-0.998l1.675,1.742l-10.079,2.39l-1.469,4.348c-0.002,0 -22.766,47.589 -19.422,70.87c0,0 14.208,8.475 28.411,0l3.775,-63.653l0,-5.298l21.141,-4.769l-1.493,3.677l-15.763,5.126l7.29,2.604l89.494,27.545l89.492,-27.545l60.507,-21.64l-149.999,-57.709l-150.001,57.709Z" style="fill:#ebeff3;fill-rule:nonzero;"/></g></svg>