<?xml version="1.0" encoding="UTF-8" standalone="no"?>
<svg
   xmlns:dc="http://purl.org/dc/elements/1.1/"
   xmlns:cc="http://creativecommons.org/ns#"
   xmlns:rdf="http://www.w3.org/1999/02/22-rdf-syntax-ns#"
   xmlns:svg="http://www.w3.org/2000/svg"
   xmlns="http://www.w3.org/2000/svg"
   xmlns:sodipodi="http://sodipodi.sourceforge.net/DTD/sodipodi-0.dtd"
   xmlns:inkscape="http://www.inkscape.org/namespaces/inkscape"
   id="Capa_1"
   enable-background="new 0 0 512 512"
   height="512"
   viewBox="0 0 512 512"
   width="512"
   version="1.1"
   sodipodi:docname="skill-computing.svg"
   inkscape:version="1.0.1 (3bc2e813f5, 2020-09-07, custom)">
  <metadata
     id="metadata11">
    <rdf:RDF>
      <cc:Work
         rdf:about="">
        <dc:format>image/svg+xml</dc:format>
        <dc:type
           rdf:resource="http://purl.org/dc/dcmitype/StillImage" />
      </cc:Work>
    </rdf:RDF>
  </metadata>
  <defs
     id="defs9" />
  <sodipodi:namedview
     pagecolor="#ffffff"
     bordercolor="#666666"
     borderopacity="1"
     objecttolerance="10"
     gridtolerance="10"
     guidetolerance="10"
     inkscape:pageopacity="0"
     inkscape:pageshadow="2"
     inkscape:window-width="1920"
     inkscape:window-height="1016"
     id="namedview7"
     showgrid="false"
     inkscape:zoom="1.3964844"
     inkscape:cx="256"
     inkscape:cy="256"
     inkscape:window-x="0"
     inkscape:window-y="35"
     inkscape:window-maximized="1"
     inkscape:current-layer="Capa_1" />
  <path
     d="m512 121v-75c0-24.813-20.187-45-45-45h-422c-24.813 0-45 20.187-45 45v75zm-166-60h90c8.284 0 15 6.716 15 15s-6.716 15-15 15h-90c-8.284 0-15-6.716-15-15s6.716-15 15-15zm-150 0c8.284 0 15 6.716 15 15s-6.716 15-15 15-15-6.716-15-15 6.716-15 15-15zm-60 0c8.284 0 15 6.716 15 15s-6.716 15-15 15-15-6.716-15-15 6.716-15 15-15zm-60 0c8.284 0 15 6.716 15 15s-6.716 15-15 15-15-6.716-15-15 6.716-15 15-15z"
     id="path2"
     style="fill:#182b61;fill-opacity:1" />
  <path
     d="m0 151v315c0 24.813 20.187 45 45 45h422c24.813 0 45-20.187 45-45v-315zm175.37 213.287c6.47 5.175 7.518 14.614 2.343 21.083-5.174 6.468-14.615 7.518-21.083 2.342l-75-60c-7.499-5.997-7.504-17.424 0-23.426l75-60c6.466-5.175 15.907-4.127 21.083 2.342 5.175 6.469 4.127 15.909-2.343 21.083l-60.358 48.289zm139.417-147.378-90 210c-3.263 7.613-12.079 11.143-19.696 7.878-7.614-3.263-11.142-12.082-7.878-19.696l90-210c3.264-7.614 12.082-11.141 19.696-7.878s11.142 12.081 7.878 19.696zm115.583 110.804-75 60c-6.458 5.168-15.9 4.136-21.083-2.342-5.175-6.469-4.127-15.909 2.343-21.083l60.358-48.288-60.358-48.287c-6.47-5.175-7.518-14.614-2.343-21.083 5.174-6.469 14.614-7.518 21.083-2.342l75 60c7.499 5.997 7.504 17.423 0 23.425z"
     id="path4"
     style="fill:#182b61;fill-opacity:1" />
</svg>
