<?xml version="1.0" encoding="UTF-8" standalone="no"?>
<!DOCTYPE svg PUBLIC "-//W3C//DTD SVG 1.1//EN" "http://www.w3.org/Graphics/SVG/1.1/DTD/svg11.dtd">
<svg width="100%" height="100%" viewBox="0 0 612 612" version="1.1" xmlns="http://www.w3.org/2000/svg" xmlns:xlink="http://www.w3.org/1999/xlink" xml:space="preserve" style="fill-rule:evenodd;clip-rule:evenodd;stroke-linejoin:round;stroke-miterlimit:1.41421;">
    <g transform="matrix(1.33119,0,0,1.33119,18.9955,196.11)">
        <g>
            <path d="M409.1,19.5L409.1,9.4L413.6,9.4C414.5,9.4 415.2,9.5 415.6,9.7C416.1,9.9 416.4,10.2 416.7,10.7C417,11.2 417.1,11.7 417.1,12.2C417.1,12.9 416.9,13.5 416.4,14C415.9,14.5 415.2,14.8 414.3,14.9C414.7,15.1 414.9,15.2 415.1,15.4C415.5,15.8 415.9,16.2 416.2,16.7L418,19.4L416.3,19.4L415,17.3C414.6,16.7 414.3,16.2 414,15.9C413.7,15.6 413.5,15.4 413.3,15.2C413.1,15.1 412.9,15 412.7,14.9C412.5,14.9 412.3,14.9 412,14.9L410.5,14.9L410.5,19.4L409.1,19.4L409.1,19.5ZM410.4,13.9L413.3,13.9C413.9,13.9 414.4,13.8 414.7,13.7C415,13.6 415.3,13.4 415.5,13.1C415.7,12.8 415.8,12.5 415.8,12.2C415.8,11.7 415.6,11.3 415.3,11C415,10.7 414.4,10.5 413.7,10.5L410.5,10.5L410.5,13.9L410.4,13.9Z" style="fill-rule:nonzero;"/>
            <path d="M412.8,25C407.1,25 402.4,20.3 402.4,14.6C402.4,8.9 407,4.3 412.8,4.3C418.5,4.3 423.2,9 423.2,14.7C423.2,20.4 418.5,25 412.8,25ZM412.8,5.6C407.8,5.6 403.7,9.7 403.7,14.7C403.7,19.7 407.8,23.8 412.8,23.8C417.8,23.8 421.9,19.7 421.9,14.7C421.9,9.7 417.8,5.6 412.8,5.6Z" style="fill-rule:nonzero;"/>
        </g>
        <g>
            <g>
                <rect x="8" y="15.5" width="122.3" height="122.3"/>
                <rect x="19.9" y="27.4" width="98.6" height="98.6" style="fill:white;"/>
                <rect x="58.7" y="65.8" width="94.1" height="94.1"/>
                <rect x="69.9" y="77" width="71.5" height="71.5" style="fill:rgb(241,90,34);"/>
            </g>
            <g>
                <path d="M258.1,131.7C257.2,134 255.8,136 254.1,137.9C252.3,139.7 250.2,141.3 247.9,142.6C245.6,143.9 243,144.9 240.4,145.7C237.7,146.5 235,146.8 232.2,146.8C228.3,146.8 224.5,146 221,144.5C217.5,143 214.3,140.9 211.5,138.2C208.7,135.5 206.4,132.3 204.7,128.6C203.1,125.2 202.1,121.4 201.6,117.2L279.3,117.2L279.5,116.4C279.6,115.7 279.7,114.9 279.8,113.7C279.9,112.6 279.9,111.4 279.9,110C279.9,103.7 278.8,97.5 276.5,91.6C274.2,85.7 271,80.4 266.8,76C262.6,71.5 257.5,67.9 251.6,65.2C245.7,62.5 239,61.2 231.8,61.2C224.6,61.2 217.9,62.5 212,65.2C206,67.8 200.8,71.4 196.5,76C192.2,80.5 188.8,85.8 186.4,91.8C184,97.8 182.8,104.2 182.8,110.9C182.8,117.6 184,124 186.4,130.1C188.8,136.1 192.1,141.5 196.4,146C200.7,150.5 205.9,154.1 211.8,156.8C217.8,159.4 224.5,160.8 231.6,160.8C236.3,160.8 241,160.2 245.4,159C249.8,157.8 253.8,156.1 257.4,153.9C261,151.8 264.2,149.2 267,146.3C269.8,143.4 272,140.1 273.6,136.5L274.1,135.4L258.4,131.1L258.1,131.7ZM231.9,75.2C235.9,75.2 239.8,75.9 243.4,77.4C247,78.8 250.2,80.9 252.9,83.4C255.6,85.9 257.9,89.1 259.7,92.7C261.3,96 262.4,99.7 262.8,103.6L201.3,103.6C201.7,99.7 202.7,96.1 204.3,92.8C206,89.2 208.2,86.1 210.9,83.5C213.6,80.9 216.8,78.9 220.4,77.4C223.9,75.9 227.8,75.2 231.9,75.2Z" style="fill-rule:nonzero;"/>
                <path d="M403.2,28.8L289.1,28.8L289.1,45.8L367.7,45.8L275.9,159.7L391.2,159.7L391.2,142.7L311.5,142.7L403.2,28.8Z" style="fill-rule:nonzero;"/>
            </g>
        </g>
    </g>
</svg>
